<svg id="Layer_1" data-name="Layer 1" xmlns="http://www.w3.org/2000/svg" viewBox="0 0 117.7 109.65"><defs><style>.cls-1{fill:#90482c;}.cls-2{fill:#fff;}</style></defs><path class="cls-1" d="M104.46,72.76V62.92a5,5,0,0,0-5-5H95.21a4.93,4.93,0,0,0-2.68.79A12.06,12.06,0,0,0,88.11,58H86.85v-2a5,5,0,0,0-5-5H80.75a4.91,4.91,0,0,0-1.16.14,6.77,6.77,0,0,0-1.81-.26h0a6.79,6.79,0,0,0-2.13.34c.57-.57,1.37-1.4,2.58-2.68,1.83-1.92,4.11-4.32,5.62-5.85a7.54,7.54,0,0,0-.09-10.73l-16-16a4.94,4.94,0,0,0,2-5.46A5,5,0,0,0,65,4.17h-.1l-5.63.12h-.36a5,5,0,0,0-5,5v2.86c-.15.13-.31.27-.46.42L34.07,31.88a7.57,7.57,0,0,0,0,10.92L42.23,51l-.39,0a6.84,6.84,0,0,0-1.65-.21,6.67,6.67,0,0,0-1.68.22,4.91,4.91,0,0,0-.67-.05H35a5,5,0,0,0-5,5V58a5.41,5.41,0,0,0-1,.24A5,5,0,0,0,27.39,58H24.7a10.58,10.58,0,0,0-8.18-3.78h-.19C10,54.29,5.21,58.9,5.21,64.9a9.45,9.45,0,0,0,1.51,5.28A4.83,4.83,0,0,0,6,72.74v3.59a5,5,0,0,0,1.41,3.46c2.23,2.28,5.66,2.62,7.51,2.62a13.55,13.55,0,0,0,6.39-1.48,4.92,4.92,0,0,0,1.8.34h4.28A5,5,0,0,0,29.08,81a4.9,4.9,0,0,0,1.68.29h2.62v4.11a5,5,0,0,0,5,5h2.12A5,5,0,0,0,43.83,89a8.46,8.46,0,0,0,9.28.28,8.47,8.47,0,0,0,4.43,1.25,8.37,8.37,0,0,0,3.39-.71,4.86,4.86,0,0,0,2.15.5h2.73a9,9,0,0,0,3.72-.77,8.07,8.07,0,0,0,4,1h0a8.81,8.81,0,0,0,4.77-1.38,7.31,7.31,0,0,0,1.61-1.41,8.94,8.94,0,0,0,6.34,2.35,22.78,22.78,0,0,0,7.94-1.84,16.55,16.55,0,0,0,6.87,1.46,11.07,11.07,0,0,0,7.42-2.51,8.66,8.66,0,0,0,3.08-6.55A8,8,0,0,0,104.46,72.76Z"/><path class="cls-2" d="M16.42,59.14c-4,.07-6.24,2.87-6.24,5.76,0,5.14,6.62,5.21,6.62,7.77,0,2.25-5.83.62-5.83.07v3.59c1.89,1.93,10.26,1.65,10.26-3.16,0-4.47-7-3.8-7-8.25a2.22,2.22,0,0,1,2.51-2.24c2.42,0,3.44,3.63.84,4.18-.07,1.91,4.61,1.2,4.61-2A5.52,5.52,0,0,0,16.42,59.14Z"/><polygon class="cls-2" points="30.76 68.58 27.39 68.58 27.39 62.92 23.11 62.92 23.11 76.3 27.39 76.3 27.39 71 30.76 71 30.76 76.3 35.04 76.3 35.04 62.92 30.76 62.92 30.76 68.58"/><rect class="cls-2" x="36.48" y="62.92" width="4.28" height="13.39"/><polygon class="cls-2" points="52.06 62.92 49.27 70.78 46.47 62.92 42.19 62.92 46.95 76.3 51.23 76.3 50.89 75.35 55.31 62.92 52.06 62.92"/><polygon class="cls-2" points="56.53 62.92 56.53 76.3 59.78 76.3 59.78 68.46 64.4 76.3 68.68 76.3 68.68 62.92 65.43 62.92 65.43 70.78 60.81 62.92 56.53 62.92"/><polygon class="cls-2" points="70.11 76.3 80.15 76.3 80.7 73.41 74.39 73.41 74.39 71 79.72 71 79.72 68.58 74.39 68.58 74.39 65.88 80.7 65.88 80.7 62.92 70.11 62.92 70.11 76.3"/><path class="cls-2" d="M103.17,77.64c-1.93,0-4.87.81-8,1.63-1.87-2-3.35-5.57-4.18-7.87,4.61-1.93,3.32-8.48-2.9-8.48h-6V76.3h4.28V71.93h.64a32.67,32.67,0,0,0,4.4,8.24c-3.78.87-7.39,1.3-9.44,0,0,7.29,6.52,5.26,12.5,2.68a11.65,11.65,0,0,0,6.57,2C108,84.81,108.14,77.64,103.17,77.64Zm-15.3-8.1-1.45,0V65.28l1.45,0C90.31,65.31,90.17,69.54,87.87,69.54Zm13.22,12.93a6.35,6.35,0,0,1-3.37-1c2.3-1,4.28-1.87,5.45-1.87C105.75,79.55,105.11,82.47,101.09,82.47Z"/><rect class="cls-2" x="95.21" y="62.92" width="4.28" height="13.39"/><polygon class="cls-2" points="38.34 85.38 40.46 85.38 40.46 82.99 43.08 82.99 43.08 81.79 40.46 81.79 40.46 80.22 43.59 80.22 43.59 78.75 38.34 78.75 38.34 85.38"/><path class="cls-2" d="M48.69,78.53a3.53,3.53,0,1,0,3.54,3.53A3.52,3.52,0,0,0,48.69,78.53Zm0,5.66c-1.76,0-1.76-4.29,0-4.29S50.44,84.19,48.69,84.19Z"/><path class="cls-2" d="M57.54,78.53a3.53,3.53,0,1,0,3.54,3.53A3.52,3.52,0,0,0,57.54,78.53Zm0,5.66c-1.76,0-1.76-4.29,0-4.29S59.29,84.19,57.54,84.19Z"/><path class="cls-2" d="M65.81,78.75H63.08v6.63h2.73c1.83,0,3.4-1,3.4-3.18v-.28C69.21,79.73,67.64,78.75,65.81,78.75Zm1.28,3.45c0,1.32-.52,2-1.29,2l-.6,0V79.92h.6c.77,0,1.29.68,1.29,2Z"/><path class="cls-2" d="M73.27,80.51c0-1.12,1.86-.77,1.73.49l1.38-.29c0-3.08-5.28-2.91-5.28-.19,0,1.9,3.19,1.74,3.19,3,0,1-2,1-2-.53L71,83.35c-.19,3.28,5.59,2.76,5.59.11C76.57,81.58,73.27,81.6,73.27,80.51Z"/><path class="cls-2" d="M60.79,16.05a2.84,2.84,0,0,0-1.52-.81v7.37h-.41V15.2a2.73,2.73,0,0,0-1.92.86q-9.69,9.66-19.35,19.33a2.59,2.59,0,0,0,0,3.91l8.61,8.61V31.57c0-.79.22-1,1-.78.25.06.4.17.25.43l-.81,1.41V44.38l4.11-1.49-.15,6.26-2.32-1.94V50l6,6V37.1l-3.8,1.82V36.36l3.81-1.76h0l.41-.19v22l2.25,2.25a3.16,3.16,0,0,0,1.14.72c.58.21.83.16.83-.58,0-7,0-14,0-21,0-1.64-.16-4.7,1.49-3.79,3.07,1.69,8.55,4.62,11.61,6.35,0,.57-.13,2.48-.22,4.3h0c-1.67-1-6.07-3.53-6.83-3.72s-1.06-.07-1.06.8v2.68L71.76,48h0c.12,0,5.65-5.94,8.51-8.84a2.59,2.59,0,0,0-.08-3.73Q70.5,25.74,60.79,16.05ZM50.39,29.46c-.33.59-.67,1.17-1,1.76l-.21-.08V29.81c0-.79.21-1,1-.78C50.39,29.09,50.54,29.2,50.39,29.46Zm5.29-3.15c0-.79.22-1,1-.78.25.06.4.17.25.43-.33.59-.67,1.17-1,1.76l-.21-.07ZM52.43,27.9c0-.79.22-1,1-.78.26.06.4.17.25.43-.33.59-.67,1.17-1,1.76l-.21-.07ZM72.33,38c0,1.15-.39,1.32-1.45.7l-9.4-5.43c-.62-.36-1.25-.71-1.87-1.08s-.69-1.65-.73-2.34a9.72,9.72,0,0,1,0-1.08c0-.4-.34-.12-.5-.06-.53.2-1.06.42-1.6.6h0l-5.58,2.22v-.43L58.64,28a.8.8,0,0,0,.24-.69c0-.72,0-1.44,0-2.16a8,8,0,0,1,1-.43,9.59,9.59,0,0,1,.94.83c0,.3,0,1.86,0,2.15.7.48,1.07.75,1.89,1.23,0-.64,0-1.24,0-1.83a6,6,0,0,1,1.07-.16,3.79,3.79,0,0,1,.92.82c0,.39,0,.44,0,.87-.13,1.54,0,1.55,1.9,2.55,0-.7,0-1.05,0-1.69.44-.2.68-.27,1-.41a7.54,7.54,0,0,1,1,1c0,.73,0,2,0,2a17.79,17.79,0,0,0,1.87,1.21V31.58a7.91,7.91,0,0,1,1-.52c.2.22.81.62,1,1C72.37,34,72.35,36.12,72.33,38Z"/><path class="cls-2" d="M70.28,49.33l-6.42-3v9.29C65.42,54.06,70.28,49.33,70.28,49.33Z"/><path class="cls-2" d="M59.27,11.81H65l-1.5-.94L65,9.14l-5.68.12h-.41V15.2a1.84,1.84,0,0,1,.41,0Z"/><path class="cls-2" d="M35,55.93h2.8v.79H36.17v.71h1.41v.64H36.17v.63h1.67l-.15.77H35Z"/><path class="cls-2" d="M41.71,58.44c0,1.42-3.08,1.69-3,0l.72-.22c0,.81,1,.8,1,.28s-1.7-.56-1.7-1.57c0-1.45,2.81-1.54,2.81.1l-.73.15c.07-.67-.92-.86-.92-.26S41.71,57.44,41.71,58.44Z"/><path class="cls-2" d="M42.47,55.93h3v.65h-1v2.89H43.42V56.58h-1Z"/><path class="cls-2" d="M46.34,55.93h1.45a1.64,1.64,0,0,1,1.81,1.69v.16a1.64,1.64,0,0,1-1.81,1.69H46.34Zm1.13.63v2.28h.32c.41,0,.68-.35.68-1v-.16c0-.7-.27-1-.68-1Z"/><path class="cls-2" d="M68.2,58.46c1-.29,1.39-.91,1.39-1.49,0-.29-.16-.52-.33-.52s-.49.25-.39.68l-.73-.08A1.29,1.29,0,0,1,70.71,57a2.1,2.1,0,0,1-1.3,1.72h1.32l-.14.77H68.2Z"/><path class="cls-2" d="M73.38,55.81a1.63,1.63,0,0,1,1.68,1.7v.38a1.69,1.69,0,1,1-3.37,0v-.38A1.63,1.63,0,0,1,73.38,55.81Zm0,.67c-.29,0-.58.32-.58,1v.38c0,.67.29,1,.58,1s.53-.35.53-1v-.38C73.93,56.83,73.67,56.48,73.4,56.48Z"/><path class="cls-2" d="M77.74,55.81a1.63,1.63,0,0,1,1.69,1.7v.38a1.62,1.62,0,0,1-1.67,1.7,1.65,1.65,0,0,1-1.71-1.7v-.38A1.63,1.63,0,0,1,77.74,55.81Zm0,.67c-.29,0-.59.32-.59,1v.38c0,.67.3,1,.58,1s.54-.35.54-1v-.38C78.3,56.83,78,56.48,77.77,56.48Z"/><path class="cls-2" d="M81.88,59.47H80.75V56.94h-.44l.44-1h1.13Z"/></svg>