<?xml version="1.0" standalone="no"?>
<!DOCTYPE svg PUBLIC "-//W3C//DTD SVG 20010904//EN"
 "http://www.w3.org/TR/2001/REC-SVG-20010904/DTD/svg10.dtd">
<svg version="1.0" xmlns="http://www.w3.org/2000/svg"
 width="512.000000pt" height="512.000000pt" viewBox="0 0 512.000000 512.000000"
 preserveAspectRatio="xMidYMid meet">

<g transform="translate(0.000000,512.000000) scale(0.100000,-0.100000)"
fill="#f4a42d" stroke="none">
<path d="M2450 5104 c-65 -18 -136 -62 -184 -114 -19 -21 -60 -89 -92 -152
-48 -93 -71 -126 -134 -188 -169 -168 -384 -225 -633 -169 -127 29 -214 23
-301 -20 -120 -59 -200 -164 -226 -299 -17 -82 -2 -157 55 -276 54 -116 75
-200 75 -308 0 -107 -28 -218 -77 -308 -47 -88 -98 -147 -187 -218 -94 -75
-112 -95 -149 -172 -30 -61 -32 -72 -32 -170 0 -99 2 -110 33 -172 36 -73 93
-136 159 -175 24 -14 95 -38 158 -53 152 -38 239 -84 336 -180 138 -136 186
-257 198 -495 6 -130 11 -157 33 -205 92 -200 344 -293 534 -199 24 13 77 49
117 81 264 211 590 211 854 0 40 -32 93 -68 117 -81 190 -94 442 -1 534 199
22 48 27 75 33 205 12 238 60 359 198 495 97 96 184 142 336 180 63 15 134 39
158 53 66 39 123 102 159 175 31 62 33 73 33 172 0 98 -2 109 -32 170 -37 77
-55 97 -149 172 -89 71 -140 130 -187 218 -49 90 -77 201 -77 308 0 108 21
192 75 308 57 119 72 194 55 276 -26 135 -106 240 -226 299 -87 43 -174 49
-301 20 -249 -56 -464 1 -633 169 -63 62 -86 95 -134 188 -32 63 -73 131 -92
152 -99 110 -256 154 -404 114z m380 -739 c573 -128 993 -605 1039 -1181 49
-625 -342 -1193 -944 -1369 -102 -30 -268 -55 -365 -55 -97 0 -263 25 -365 55
-527 154 -902 614 -945 1160 -42 535 245 1038 730 1280 125 63 223 93 420 129
57 10 357 -3 430 -19z"/>
<path d="M2437 4140 c-449 -51 -828 -396 -924 -843 -28 -130 -24 -353 10 -481
88 -332 322 -602 627 -727 152 -61 218 -73 410 -73 192 0 258 12 410 73 305
125 539 395 627 727 34 128 38 351 10 481 -75 348 -322 641 -651 771 -164 66
-348 91 -519 72z m685 -777 c41 -42 48 -96 16 -143 -23 -34 -632 -489 -710
-530 -93 -49 -122 -26 -303 239 -73 109 -77 117 -72 159 9 84 94 134 168 98
23 -11 57 -49 104 -116 39 -55 72 -100 75 -100 3 0 129 91 280 202 151 111
286 208 300 215 40 22 107 11 142 -24z"/>
<path d="M2368 1187 c-25 -13 -78 -49 -117 -81 -134 -108 -262 -156 -421 -156
-173 0 -364 82 -472 203 -15 17 -29 29 -32 26 -15 -15 -336 -745 -336 -763 0
-28 29 -56 59 -56 12 0 90 19 173 41 170 47 211 47 301 6 85 -39 122 -85 201
-246 58 -118 76 -148 98 -155 19 -7 33 -5 50 6 16 11 91 165 257 534 129 286
249 552 268 592 18 39 29 72 25 72 -4 0 -28 -11 -54 -23z"/>
<path d="M2723 1138 c19 -40 139 -306 268 -592 166 -369 241 -523 257 -534 17
-11 31 -13 50 -6 22 7 40 37 98 155 79 161 116 207 201 246 90 41 131 41 301
-6 83 -22 162 -41 175 -41 29 0 57 29 57 57 0 17 -322 748 -336 762 -3 3 -17
-9 -32 -26 -108 -121 -299 -203 -472 -203 -161 0 -283 46 -426 160 -64 51
-147 100 -170 100 -2 0 11 -33 29 -72z"/>
</g>
</svg>
